<svg viewBox="0 0 640 400" data-background-color="#ffffff" preserveAspectRatio="xMidYMid meet" height="400" width="640" xmlns="http://www.w3.org/2000/svg" xmlns:xlink="http://www.w3.org/1999/xlink"><rect width="640" height="400" x="0" y="0" opacity="1" fill="none" data-fill-palette-color="background" id="background"></rect><g id="tight-bounds" transform="matrix(1,0,0,1,132.46023559570312,81.67251586914062)"><svg viewBox="0 0 375.07952880859375 236.65496826171875" height="236.65496826171875" width="375.07952880859375"><g><svg></svg></g><g><svg viewBox="0 0 375.07952880859375 236.65496826171875" height="236.65496826171875" width="375.07952880859375"><g transform="matrix(1,0,0,1,-10.220239639282227,-10.5450439453125)"><path xmlns="http://www.w3.org/2000/svg" d="M10.22 236.655v-226.11h375.08v226.11l-7.365 0v-26.314l-0.703 0 0-191.728h-358.944v209.974h192.429v8.068z" fill="#494f85" fill-rule="nonzero" stroke="none" stroke-width="1" stroke-linecap="butt" stroke-linejoin="miter" stroke-miterlimit="10" stroke-dasharray="" stroke-dashoffset="0" font-family="none" font-weight="none" font-size="none" text-anchor="none" style="mix-blend-mode: normal" data-fill-palette-color="tertiary"></path><g><path xmlns="http://www.w3.org/2000/svg" d="M234.921 235.462v-24.059l6.427-1.062v8.391h9.878v5.365h-9.878v11.312c0 2.231 0.354 3.824 1.062 4.78 0.708 0.956 1.912 1.434 3.611 1.434v0c1.168 0 2.206-0.124 3.113-0.371 0.899-0.248 1.615-0.478 2.145-0.691v0l1.063 5.099c-0.744 0.319-1.717 0.648-2.921 0.988-1.204 0.333-2.62 0.499-4.249 0.499v0c-1.983 0-3.636-0.266-4.961-0.797-1.331-0.531-2.386-1.303-3.165-2.315-0.779-1.006-1.328-2.227-1.647-3.665-0.319-1.43-0.478-3.066-0.478-4.908zM255.422 232.754v0c0-2.443 0.365-4.585 1.094-6.427 0.722-1.841 1.685-3.374 2.89-4.599 1.204-1.218 2.585-2.139 4.142-2.762 1.558-0.616 3.151-0.924 4.78-0.924v0c3.824 0 6.809 1.186 8.955 3.558 2.139 2.372 3.208 5.913 3.208 10.623v0c0 0.354-0.007 0.751-0.022 1.189-0.021 0.446-0.05 0.846-0.085 1.201v0h-18.323c0.177 2.231 0.967 3.955 2.369 5.173 1.395 1.225 3.42 1.838 6.076 1.837v0c1.558 0 2.985-0.142 4.281-0.425 1.289-0.283 2.305-0.584 3.048-0.902v0l0.85 5.258c-0.354 0.177-0.839 0.361-1.455 0.552-0.623 0.198-1.331 0.379-2.125 0.542-0.8 0.156-1.661 0.287-2.581 0.393-0.921 0.106-1.859 0.159-2.815 0.159v0c-2.443 0-4.568-0.365-6.373-1.094-1.806-0.722-3.293-1.731-4.462-3.027-1.168-1.289-2.036-2.811-2.602-4.568-0.567-1.749-0.85-3.668-0.85-5.757zM262.114 229.886h11.95c0-0.885-0.124-1.728-0.372-2.528-0.248-0.793-0.609-1.484-1.083-2.072-0.482-0.581-1.066-1.041-1.753-1.381-0.694-0.333-1.519-0.499-2.475-0.499v0c-0.991 0-1.859 0.184-2.602 0.553-0.744 0.375-1.37 0.864-1.88 1.465-0.517 0.602-0.917 1.292-1.201 2.072-0.283 0.779-0.478 1.576-0.584 2.39zM297.061 241.995v0c1.983 0 3.488-0.106 4.515-0.319v0-7.116c-0.354-0.106-0.867-0.212-1.54-0.319-0.673-0.106-1.416-0.159-2.231-0.159v0c-0.708 0-1.423 0.053-2.146 0.159-0.729 0.106-1.384 0.301-1.965 0.584-0.588 0.283-1.059 0.68-1.413 1.19-0.354 0.517-0.531 1.165-0.531 1.944v0c0 1.523 0.478 2.574 1.434 3.154 0.956 0.588 2.248 0.882 3.877 0.882zM296.53 218.042v0c2.124 0 3.913 0.266 5.364 0.797 1.452 0.531 2.613 1.275 3.485 2.23 0.864 0.956 1.484 2.114 1.858 3.474 0.368 1.367 0.552 2.864 0.553 4.493v0 16.836c-0.991 0.212-2.489 0.471-4.493 0.776-1.997 0.297-4.252 0.446-6.767 0.446v0c-1.664 0-3.187-0.159-4.567-0.478-1.381-0.319-2.56-0.832-3.538-1.54-0.97-0.708-1.731-1.629-2.283-2.762-0.545-1.133-0.818-2.532-0.818-4.196v0c0-1.593 0.312-2.939 0.935-4.036 0.616-1.098 1.455-1.993 2.517-2.688 1.062-0.687 2.294-1.183 3.697-1.487 1.395-0.297 2.854-0.446 4.376-0.446v0c0.708 0 1.452 0.042 2.231 0.127 0.779 0.092 1.611 0.244 2.496 0.457v0-1.062c0-0.744-0.089-1.452-0.266-2.125-0.177-0.673-0.489-1.268-0.935-1.784-0.439-0.51-1.023-0.906-1.752-1.19-0.722-0.283-1.632-0.425-2.73-0.425v0c-1.487 0-2.85 0.106-4.09 0.319-1.239 0.212-2.248 0.46-3.027 0.744v0l-0.797-5.205c0.814-0.283 2.001-0.567 3.559-0.85 1.558-0.283 3.222-0.425 4.992-0.425zM331.477 246.51v-14.606c0-2.903-0.361-5.003-1.083-6.299-0.729-1.289-2.086-1.933-4.068-1.933v0c-0.708 0-1.487 0.053-2.337 0.159-0.85 0.106-1.487 0.195-1.912 0.266v0 22.413h-6.427v-26.875c1.239-0.354 2.861-0.69 4.865-1.009 1.997-0.319 4.111-0.478 6.342-0.478v0c1.912 0 3.481 0.248 4.705 0.744 1.218 0.496 2.234 1.151 3.049 1.965v0c0.389-0.283 0.885-0.584 1.487-0.903 0.602-0.319 1.275-0.613 2.018-0.882 0.744-0.262 1.533-0.482 2.369-0.658 0.829-0.177 1.668-0.266 2.518-0.266v0c2.16 0 3.941 0.308 5.343 0.924 1.395 0.623 2.493 1.491 3.292 2.603 0.793 1.119 1.342 2.464 1.647 4.036 0.297 1.579 0.446 3.307 0.446 5.184v0 15.615h-6.426v-14.606c0-2.903-0.354-5.003-1.063-6.299-0.708-1.289-2.071-1.933-4.089-1.933v0c-1.027 0-2.001 0.166-2.921 0.499-0.921 0.34-1.611 0.669-2.072 0.988v0c0.283 0.885 0.478 1.823 0.585 2.815 0.106 0.991 0.159 2.054 0.159 3.186v0 15.35z" fill="#494f85" fill-rule="nonzero" stroke="none" stroke-width="1" stroke-linecap="butt" stroke-linejoin="miter" stroke-miterlimit="10" stroke-dasharray="" stroke-dashoffset="0" font-family="none" font-weight="none" font-size="none" text-anchor="none" style="mix-blend-mode: normal" data-fill-palette-color="secondary"></path></g></g><g transform="matrix(1,0,0,1,29.331764404296877,73.59547923489855)"><svg viewBox="0 0 316.416 89.46400979192165" height="89.46400979192165" width="316.416"><g><svg viewBox="0 0 316.416 89.46400979192165" height="89.46400979192165" width="316.416"><g><svg viewBox="0 0 316.416 89.46400979192165" height="89.46400979192165" width="316.416"><g><svg viewBox="0 0 316.416 89.46400979192165" height="89.46400979192165" width="316.416"><g><svg viewBox="0 0 316.416 89.46400979192165" height="89.46400979192165" width="316.416"><g><svg viewBox="0 0 316.416 89.46400979192165" height="89.46400979192165" width="316.416"><g transform="matrix(1,0,0,1,0,0)"><svg width="316.416" viewBox="4 -34.650001525878906 122.54000091552734 34.650001525878906" height="89.46400979192165" data-palette-color="#494f85"><path d="M11.8-6.7L27.15-6.7 27.15 0 4 0 4-34.65 11.8-34.65 11.8-6.7ZM39.85-20.4L39.85-20.4Q41.95-23.95 43.85-27.5 45.75-31.05 47.35-34.65L47.35-34.65 55.95-34.65Q53.1-29.05 50.05-23.8 47-18.55 43.6-13.25L43.6-13.25 43.6 0 35.8 0 35.8-13.15Q32.4-18.45 29.32-23.75 26.25-29.05 23.4-34.65L23.4-34.65 32.45-34.65Q34.05-31.05 35.9-27.5 37.75-23.95 39.85-20.4ZM79.95 0L72.45 0Q70.4-4.35 68.4-9.05 66.4-13.75 64.6-18.35 62.8-22.95 61.27-27.15 59.75-31.35 58.65-34.65L58.65-34.65 67.25-34.65Q68.25-31.65 69.42-28.18 70.6-24.7 71.82-21.25 73.05-17.8 74.2-14.65 75.35-11.5 76.35-9.2L76.35-9.2Q77.3-11.5 78.47-14.65 79.65-17.8 80.87-21.25 82.1-24.7 83.27-28.18 84.45-31.65 85.45-34.65L85.45-34.65 93.75-34.65Q92.6-31.35 91.1-27.15 89.6-22.95 87.8-18.35 86-13.75 84-9.05 82-4.35 79.95 0L79.95 0ZM126.54 0L118.19 0Q117.64-1.8 116.97-3.7 116.29-5.6 115.64-7.5L115.64-7.5 102.14-7.5Q101.49-5.6 100.82-3.7 100.14-1.8 99.59 0L99.59 0 91.49 0Q93.44-5.6 95.19-10.35 96.94-15.1 98.62-19.3 100.29-23.5 101.92-27.28 103.54-31.05 105.29-34.65L105.29-34.65 112.74-34.65Q114.44-31.05 116.09-27.28 117.74-23.5 119.42-19.3 121.09-15.1 122.84-10.35 124.59-5.6 126.54 0L126.54 0ZM108.84-26.8L108.84-26.8Q108.59-26.05 108.09-24.75 107.59-23.45 106.94-21.75 106.29-20.05 105.52-18 104.74-15.95 103.94-13.7L103.94-13.7 113.79-13.7Q112.99-15.95 112.24-18 111.49-20.05 110.82-21.75 110.14-23.45 109.64-24.75 109.14-26.05 108.84-26.8Z" opacity="1" transform="matrix(1,0,0,1,0,0)" fill="#494f85" class="undefined-text-0" data-fill-palette-color="primary" id="text-0"></path></svg></g></svg></g></svg></g></svg></g></svg></g></svg></g></svg></g></svg></g><defs></defs></svg><rect width="375.07952880859375" height="236.65496826171875" fill="none" stroke="none" visibility="hidden"></rect></g></svg>